Hubballi-Regular-21-22-23-25.ufo
<glyph name="comma" format="1">
  <advance width="230"/>
  <unicode hex="002C"/>
  <outline>
    <contour>
      <point x="134" y="85" type="curve" smooth="yes"/>
      <point x="138" y="71"/>
      <point x="141" y="50"/>
      <point x="141" y="28" type="curve" smooth="yes"/>
      <point x="141" y="-23"/>
      <point x="123" y="-75"/>
      <point x="94" y="-114" type="curve" smooth="yes"/>
      <point x="86" y="-125"/>
      <point x="70" y="-127"/>
      <point x="59" y="-119" type="curve" smooth="yes"/>
      <point x="48" y="-111"/>
      <point x="46" y="-95"/>
      <point x="54" y="-84" type="curve" smooth="yes"/>
      <point x="77" y="-53"/>
      <point x="91" y="-13"/>
      <point x="91" y="28" type="curve" smooth="yes"/>
      <point x="91" y="44"/>
      <point x="90" y="59"/>
      <point x="86" y="69" type="curve" smooth="yes"/>
      <point x="82" y="82"/>
      <point x="89" y="96"/>
      <point x="102" y="101" type="curve" smooth="yes"/>
      <point x="115" y="105"/>
      <point x="129" y="98"/>
    </contour>
  </outline>
</glyph>
<glyph name="B" format="1">
  <advance width="528"/>
  <unicode hex="0042"/>
  <outline>
    <contour>
      <point x="132" y="308" type="curve" smooth="yes"/>
      <point x="281" y="308" type="line" smooth="yes"/>
      <point x="341" y="308"/>
      <point x="394" y="287"/>
      <point x="426" y="255" type="curve" smooth="yes"/>
      <point x="456" y="225"/>
      <point x="470" y="190"/>
      <point x="470" y="150" type="curve" smooth="yes"/>
      <point x="470" y="114"/>
      <point x="457" y="77"/>
      <point x="429" y="49" type="curve" smooth="yes"/>
      <point x="399" y="20"/>
      <point x="354" y="-2"/>
      <point x="278" y="-2" type="curve" smooth="yes"/>
      <point x="123" y="-2" type="line" smooth="yes"/>
      <point x="109" y="-2"/>
      <point x="98" y="9"/>
      <point x="98" y="23" type="curve" smooth="yes"/>
      <point x="98" y="508" type="line" smooth="yes"/>
      <point x="98" y="522"/>
      <point x="109" y="533"/>
      <point x="123" y="533" type="curve" smooth="yes"/>
      <point x="262" y="533" type="line" smooth="yes"/>
      <point x="321" y="533"/>
      <point x="360" y="513"/>
      <point x="385" y="489" type="curve" smooth="yes"/>
      <point x="407" y="466"/>
      <point x="422" y="429"/>
      <point x="422" y="397" type="curve" smooth="yes"/>
      <point x="422" y="361"/>
      <point x="407" y="327"/>
      <point x="385" y="304" type="curve" smooth="yes"/>
      <point x="364" y="283"/>
      <point x="323" y="262"/>
      <point x="275" y="258" type="curve" smooth="yes"/>
      <point x="261" y="257"/>
      <point x="249" y="268"/>
      <point x="248" y="281" type="curve" smooth="yes"/>
      <point x="247" y="295"/>
      <point x="258" y="307"/>
      <point x="271" y="308" type="curve" smooth="yes"/>
      <point x="305" y="310"/>
      <point x="334" y="325"/>
      <point x="349" y="340" type="curve" smooth="yes"/>
      <point x="363" y="353"/>
      <point x="372" y="375"/>
      <point x="372" y="397" type="curve" smooth="yes"/>
      <point x="372" y="417"/>
      <point x="363" y="440"/>
      <point x="349" y="453" type="curve" smooth="yes"/>
      <point x="332" y="471"/>
      <point x="303" y="483"/>
      <point x="262" y="483" type="curve" smooth="yes"/>
      <point x="123" y="483" type="line"/>
      <point x="148" y="508" type="line"/>
      <point x="148" y="23" type="line"/>
      <point x="123" y="48" type="line"/>
      <point x="278" y="48" type="line" smooth="yes"/>
      <point x="336" y="48"/>
      <point x="371" y="62"/>
      <point x="393" y="85" type="curve" smooth="yes"/>
      <point x="411" y="103"/>
      <point x="420" y="126"/>
      <point x="420" y="150" type="curve" smooth="yes"/>
      <point x="420" y="176"/>
      <point x="410" y="199"/>
      <point x="390" y="219" type="curve" smooth="yes"/>
      <point x="366" y="243"/>
      <point x="325" y="258"/>
      <point x="281" y="258" type="curve" smooth="yes"/>
      <point x="132" y="258" type="line" smooth="yes"/>
      <point x="119" y="258"/>
      <point x="107" y="270"/>
      <point x="107" y="283" type="curve" smooth="yes"/>
      <point x="107" y="297"/>
      <point x="119" y="308"/>
    </contour>
  </outline>
</glyph>
<glyph name="P" format="1">
  <advance width="510"/>
  <unicode hex="0050"/>
  <outline>
    <contour>
      <point x="149" y="224" type="curve" smooth="yes"/>
      <point x="266" y="224" type="line" smooth="yes"/>
      <point x="361" y="224"/>
      <point x="412" y="281"/>
      <point x="412" y="354" type="curve" smooth="yes"/>
      <point x="412" y="431"/>
      <point x="351" y="483"/>
      <point x="266" y="483" type="curve" smooth="yes"/>
      <point x="123" y="483" type="line"/>
      <point x="148" y="508" type="line"/>
      <point x="148" y="23" type="line" smooth="yes"/>
      <point x="148" y="9"/>
      <point x="137" y="-2"/>
      <point x="123" y="-2" type="curve" smooth="yes"/>
      <point x="110" y="-2"/>
      <point x="98" y="10"/>
      <point x="98" y="23" type="curve" smooth="yes"/>
      <point x="98" y="508" type="line" smooth="yes"/>
      <point x="98" y="522"/>
      <point x="109" y="533"/>
      <point x="123" y="533" type="curve" smooth="yes"/>
      <point x="266" y="533" type="line" smooth="yes"/>
      <point x="383" y="533"/>
      <point x="462" y="457"/>
      <point x="462" y="354" type="curve" smooth="yes"/>
      <point x="462" y="257"/>
      <point x="397" y="174"/>
      <point x="266" y="174" type="curve" smooth="yes"/>
      <point x="149" y="174" type="line" smooth="yes"/>
      <point x="136" y="174"/>
      <point x="124" y="186"/>
      <point x="124" y="199" type="curve" smooth="yes"/>
      <point x="124" y="213"/>
      <point x="136" y="224"/>
    </contour>
  </outline>
</glyph>
<glyph name="R" format="1">
  <advance width="541"/>
  <unicode hex="0052"/>
  <outline>
    <contour>
      <point x="139" y="247" type="curve" smooth="yes"/>
      <point x="270" y="247" type="line" smooth="yes"/>
      <point x="362" y="247"/>
      <point x="411" y="299"/>
      <point x="411" y="365" type="curve" smooth="yes"/>
      <point x="411" y="436"/>
      <point x="353" y="483"/>
      <point x="270" y="483" type="curve" smooth="yes"/>
      <point x="123" y="483" type="line"/>
      <point x="148" y="508" type="line"/>
      <point x="148" y="23" type="line" smooth="yes"/>
      <point x="148" y="9"/>
      <point x="137" y="-2"/>
      <point x="123" y="-2" type="curve" smooth="yes"/>
      <point x="110" y="-2"/>
      <point x="98" y="10"/>
      <point x="98" y="23" type="curve" smooth="yes"/>
      <point x="98" y="508" type="line" smooth="yes"/>
      <point x="98" y="522"/>
      <point x="109" y="533"/>
      <point x="123" y="533" type="curve" smooth="yes"/>
      <point x="270" y="533" type="line" smooth="yes"/>
      <point x="387" y="533"/>
      <point x="461" y="462"/>
      <point x="461" y="365" type="curve" smooth="yes"/>
      <point x="461" y="275"/>
      <point x="400" y="197"/>
      <point x="270" y="197" type="curve" smooth="yes"/>
      <point x="139" y="197" type="line" smooth="yes"/>
      <point x="126" y="197"/>
      <point x="114" y="209"/>
      <point x="114" y="222" type="curve" smooth="yes"/>
      <point x="114" y="236"/>
      <point x="126" y="247"/>
    </contour>
    <contour>
      <point x="318" y="232" type="curve" smooth="yes"/>
      <point x="483" y="39" type="line" smooth="yes"/>
      <point x="492" y="29"/>
      <point x="491" y="13"/>
      <point x="480" y="4" type="curve" smooth="yes"/>
      <point x="470" y="-5"/>
      <point x="454" y="-4"/>
      <point x="445" y="7" type="curve" smooth="yes"/>
      <point x="280" y="200" type="line" smooth="yes"/>
      <point x="271" y="210"/>
      <point x="272" y="226"/>
      <point x="283" y="235" type="curve" smooth="yes"/>
      <point x="293" y="244"/>
      <point x="309" y="243"/>
    </contour>
  </outline>
</glyph>
<glyph name="X" format="1">
  <advance width="563"/>
  <unicode hex="0058"/>
  <outline>
    <contour>
      <point x="119" y="522" type="curve" smooth="yes"/>
      <point x="215" y="382"/>
      <point x="440" y="121"/>
      <point x="499" y="37" type="curve" smooth="yes"/>
      <point x="507" y="26"/>
      <point x="504" y="10"/>
      <point x="493" y="3" type="curve" smooth="yes"/>
      <point x="482" y="-5"/>
      <point x="466" y="-2"/>
      <point x="459" y="9" type="curve" smooth="yes"/>
      <point x="400" y="93"/>
      <point x="173" y="354"/>
      <point x="77" y="494" type="curve" smooth="yes"/>
      <point x="70" y="505"/>
      <point x="73" y="521"/>
      <point x="84" y="529" type="curve" smooth="yes"/>
      <point x="95" y="536"/>
      <point x="111" y="533"/>
    </contour>
    <contour>
      <point x="65" y="38" type="curve" smooth="yes"/>
      <point x="144" y="145"/>
      <point x="352" y="389"/>
      <point x="438" y="522" type="curve" smooth="yes"/>
      <point x="445" y="533"/>
      <point x="461" y="536"/>
      <point x="473" y="529" type="curve" smooth="yes"/>
      <point x="484" y="522"/>
      <point x="487" y="506"/>
      <point x="480" y="494" type="curve" smooth="yes"/>
      <point x="394" y="361"/>
      <point x="184" y="115"/>
      <point x="105" y="8" type="curve" smooth="yes"/>
      <point x="97" y="-3"/>
      <point x="81" y="-5"/>
      <point x="70" y="3" type="curve" smooth="yes"/>
      <point x="59" y="11"/>
      <point x="57" y="27"/>
    </contour>
  </outline>
</glyph>
<glyph name="underscore" format="1">
  <advance width="495"/>
  <unicode hex="005F"/>
  <outline>
    <contour>
      <point x="40" y="-76" type="curve" smooth="yes"/>
      <point x="455" y="-76" type="line" smooth="yes"/>
      <point x="469" y="-76"/>
      <point x="480" y="-88"/>
      <point x="480" y="-101" type="curve" smooth="yes"/>
      <point x="480" y="-115"/>
      <point x="469" y="-126"/>
      <point x="455" y="-126" type="curve" smooth="yes"/>
      <point x="40" y="-126" type="line" smooth="yes"/>
      <point x="27" y="-126"/>
      <point x="15" y="-115"/>
      <point x="15" y="-101" type="curve" smooth="yes"/>
      <point x="15" y="-88"/>
      <point x="27" y="-76"/>
    </contour>
  </outline>
</glyph>
<glyph name="b" format="1">
  <advance width="505"/>
  <unicode hex="0062"/>
  <outline>
    <contour>
      <point x="85" y="24" type="curve" smooth="yes"/>
      <point x="85" y="534" type="line" smooth="yes"/>
      <point x="85" y="548"/>
      <point x="97" y="559"/>
      <point x="110" y="559" type="curve" smooth="yes"/>
      <point x="124" y="559"/>
      <point x="135" y="548"/>
      <point x="135" y="534" type="curve" smooth="yes"/>
      <point x="135" y="24" type="line" smooth="yes"/>
      <point x="135" y="10"/>
      <point x="124" y="-1"/>
      <point x="110" y="-1" type="curve" smooth="yes"/>
      <point x="97" y="-1"/>
      <point x="85" y="11"/>
    </contour>
    <contour>
      <point x="122" y="84" type="curve" smooth="yes"/>
      <point x="166" y="60"/>
      <point x="213" y="48"/>
      <point x="268" y="48" type="curve" smooth="yes"/>
      <point x="350" y="48"/>
      <point x="407" y="105"/>
      <point x="407" y="193" type="curve" smooth="yes"/>
      <point x="407" y="279"/>
      <point x="353" y="340"/>
      <point x="281" y="340" type="curve" smooth="yes"/>
      <point x="226" y="340"/>
      <point x="172" y="299"/>
      <point x="132" y="236" type="curve" smooth="yes"/>
      <point x="125" y="224"/>
      <point x="109" y="221"/>
      <point x="98" y="228" type="curve" smooth="yes"/>
      <point x="86" y="235"/>
      <point x="83" y="251"/>
      <point x="90" y="262" type="curve" smooth="yes"/>
      <point x="140" y="343"/>
      <point x="212" y="390"/>
      <point x="281" y="390" type="curve" smooth="yes"/>
      <point x="377" y="390"/>
      <point x="457" y="313"/>
      <point x="457" y="193" type="curve" smooth="yes"/>
      <point x="457" y="73"/>
      <point x="378" y="-2"/>
      <point x="268" y="-2" type="curve" smooth="yes"/>
      <point x="205" y="-2"/>
      <point x="150" y="12"/>
      <point x="98" y="40" type="curve" smooth="yes"/>
      <point x="86" y="46"/>
      <point x="82" y="62"/>
      <point x="88" y="74" type="curve" smooth="yes"/>
      <point x="94" y="86"/>
      <point x="110" y="90"/>
    </contour>
  </outline>
</glyph>
<glyph name="f" format="1">
  <advance width="318"/>
  <unicode hex="0066"/>
  <outline>
    <contour>
      <point x="271" y="535" type="curve" smooth="yes"/>
      <point x="189" y="530"/>
      <point x="159" y="496"/>
      <point x="159" y="438" type="curve" smooth="yes"/>
      <point x="159" y="23" type="line" smooth="yes"/>
      <point x="159" y="9"/>
      <point x="148" y="-2"/>
      <point x="134" y="-2" type="curve" smooth="yes"/>
      <point x="121" y="-2"/>
      <point x="109" y="10"/>
      <point x="109" y="23" type="curve" smooth="yes"/>
      <point x="109" y="438" type="line" smooth="yes"/>
      <point x="109" y="520"/>
      <point x="143" y="578"/>
      <point x="269" y="585" type="curve" smooth="yes"/>
      <point x="282" y="586"/>
      <point x="294" y="575"/>
      <point x="295" y="561" type="curve" smooth="yes"/>
      <point x="296" y="548"/>
      <point x="285" y="536"/>
    </contour>
    <contour>
      <point x="46" y="390" type="curve" smooth="yes"/>
      <point x="272" y="390" type="line" smooth="yes"/>
      <point x="286" y="390"/>
      <point x="297" y="379"/>
      <point x="297" y="365" type="curve" smooth="yes"/>
      <point x="297" y="352"/>
      <point x="286" y="340"/>
      <point x="272" y="340" type="curve" smooth="yes"/>
      <point x="46" y="340" type="line" smooth="yes"/>
      <point x="33" y="340"/>
      <point x="21" y="352"/>
      <point x="21" y="365" type="curve" smooth="yes"/>
      <point x="21" y="379"/>
      <point x="33" y="390"/>
    </contour>
  </outline>
</glyph>
<glyph name="q" format="1">
  <advance width="505"/>
  <unicode hex="0071"/>
  <outline>
    <contour>
      <point x="420" y="365" type="curve" smooth="yes"/>
      <point x="420" y="-168" type="line" smooth="yes"/>
      <point x="420" y="-182"/>
      <point x="409" y="-193"/>
      <point x="395" y="-193" type="curve" smooth="yes"/>
      <point x="382" y="-193"/>
      <point x="370" y="-182"/>
      <point x="370" y="-168" type="curve" smooth="yes"/>
      <point x="370" y="365" type="line" smooth="yes"/>
      <point x="370" y="379"/>
      <point x="382" y="390"/>
      <point x="395" y="390" type="curve" smooth="yes"/>
      <point x="409" y="390"/>
      <point x="420" y="379"/>
    </contour>
    <contour>
      <point x="382" y="303" type="curve" smooth="yes"/>
      <point x="344" y="326"/>
      <point x="304" y="340"/>
      <point x="251" y="340" type="curve" smooth="yes"/>
      <point x="169" y="340"/>
      <point x="99" y="279"/>
      <point x="99" y="179" type="curve" smooth="yes"/>
      <point x="99" y="98"/>
      <point x="158" y="48"/>
      <point x="222" y="48" type="curve" smooth="yes"/>
      <point x="279" y="48"/>
      <point x="333" y="80"/>
      <point x="373" y="144" type="curve" smooth="yes"/>
      <point x="380" y="156"/>
      <point x="396" y="159"/>
      <point x="407" y="152" type="curve" smooth="yes"/>
      <point x="419" y="145"/>
      <point x="422" y="129"/>
      <point x="415" y="118" type="curve" smooth="yes"/>
      <point x="365" y="36"/>
      <point x="293" y="-2"/>
      <point x="222" y="-2" type="curve" smooth="yes"/>
      <point x="134" y="-2"/>
      <point x="49" y="64"/>
      <point x="49" y="179" type="curve"/>
      <point x="49" y="311"/>
      <point x="143" y="390"/>
      <point x="251" y="390" type="curve" smooth="yes"/>
      <point x="314" y="390"/>
      <point x="364" y="374"/>
      <point x="408" y="345" type="curve" smooth="yes"/>
      <point x="420" y="338"/>
      <point x="423" y="322"/>
      <point x="416" y="311" type="curve" smooth="yes"/>
      <point x="409" y="299"/>
      <point x="393" y="296"/>
    </contour>
  </outline>
</glyph>
<glyph name="y" format="1">
  <advance width="450"/>
  <unicode hex="0079"/>
  <outline>
    <contour>
      <point x="51" y="-129" type="curve" smooth="yes"/>
      <point x="110" y="-95"/>
      <point x="164" y="-53"/>
      <point x="217" y="37" type="curve" smooth="yes"/>
      <point x="270" y="125"/>
      <point x="329" y="261"/>
      <point x="362" y="372" type="curve" smooth="yes"/>
      <point x="366" y="385"/>
      <point x="380" y="393"/>
      <point x="393" y="389" type="curve" smooth="yes"/>
      <point x="406" y="385"/>
      <point x="414" y="371"/>
      <point x="410" y="358" type="curve" smooth="yes"/>
      <point x="375" y="243"/>
      <point x="314" y="103"/>
      <point x="261" y="11" type="curve" smooth="yes"/>
      <point x="202" y="-89"/>
      <point x="142" y="-135"/>
      <point x="75" y="-173" type="curve" smooth="yes"/>
      <point x="64" y="-179"/>
      <point x="48" y="-175"/>
      <point x="41" y="-163" type="curve" smooth="yes"/>
      <point x="35" y="-152"/>
      <point x="39" y="-136"/>
    </contour>
    <contour>
      <point x="89" y="374" type="curve" smooth="yes"/>
      <point x="142" y="224"/>
      <point x="207" y="115"/>
      <point x="257" y="38" type="curve" smooth="yes"/>
      <point x="264" y="26"/>
      <point x="261" y="10"/>
      <point x="250" y="3" type="curve" smooth="yes"/>
      <point x="238" y="-4"/>
      <point x="222" y="-1"/>
      <point x="215" y="10" type="curve" smooth="yes"/>
      <point x="163" y="91"/>
      <point x="96" y="202"/>
      <point x="41" y="358" type="curve" smooth="yes"/>
      <point x="37" y="370"/>
      <point x="44" y="385"/>
      <point x="57" y="390" type="curve" smooth="yes"/>
      <point x="69" y="394"/>
      <point x="84" y="387"/>
    </contour>
  </outline>
</glyph>
<glyph name="currency" format="1">
  <advance width="521"/>
  <unicode hex="00A4"/>
  <outline>
    <contour>
      <point x="260" y="411" type="curve" smooth="yes"/>
      <point x="372" y="411"/>
      <point x="443" y="326"/>
      <point x="443" y="222" type="curve" smooth="yes"/>
      <point x="443" y="121"/>
      <point x="372" y="43"/>
      <point x="260" y="43" type="curve" smooth="yes"/>
      <point x="149" y="43"/>
      <point x="77" y="122"/>
      <point x="77" y="224" type="curve" smooth="yes"/>
      <point x="77" y="326"/>
      <point x="147" y="411"/>
    </contour>
    <contour>
      <point x="260" y="361" type="curve" smooth="yes"/>
      <point x="177" y="361"/>
      <point x="127" y="298"/>
      <point x="127" y="224" type="curve" smooth="yes"/>
      <point x="127" y="150"/>
      <point x="179" y="93"/>
      <point x="260" y="93" type="curve" smooth="yes"/>
      <point x="340" y="93"/>
      <point x="393" y="149"/>
      <point x="393" y="222" type="curve" smooth="yes"/>
      <point x="393" y="298"/>
      <point x="342" y="361"/>
    </contour>
    <contour>
      <point x="426" y="7" type="curve" smooth="yes"/>
      <point x="355" y="85" type="line" smooth="yes"/>
      <point x="345" y="95"/>
      <point x="346" y="111"/>
      <point x="356" y="120" type="curve" smooth="yes"/>
      <point x="366" y="130"/>
      <point x="382" y="129"/>
      <point x="391" y="119" type="curve" smooth="yes"/>
      <point x="462" y="41" type="line" smooth="yes"/>
      <point x="472" y="31"/>
      <point x="471" y="15"/>
      <point x="461" y="6" type="curve" smooth="yes"/>
      <point x="451" y="-4"/>
      <point x="435" y="-3"/>
    </contour>
    <contour>
      <point x="129" y="332" type="curve" smooth="yes"/>
      <point x="64" y="403" type="line" smooth="yes"/>
      <point x="54" y="413"/>
      <point x="55" y="429"/>
      <point x="65" y="438" type="curve" smooth="yes"/>
      <point x="75" y="448"/>
      <point x="91" y="447"/>
      <point x="100" y="437" type="curve" smooth="yes"/>
      <point x="165" y="366" type="line" smooth="yes"/>
      <point x="175" y="356"/>
      <point x="174" y="340"/>
      <point x="164" y="331" type="curve" smooth="yes"/>
      <point x="154" y="321"/>
      <point x="138" y="322"/>
    </contour>
    <contour>
      <point x="354" y="367" type="curve" smooth="yes"/>
      <point x="419" y="439" type="line" smooth="yes"/>
      <point x="428" y="449"/>
      <point x="445" y="450"/>
      <point x="455" y="441" type="curve" smooth="yes"/>
      <point x="465" y="432"/>
      <point x="466" y="415"/>
      <point x="457" y="405" type="curve" smooth="yes"/>
      <point x="392" y="333" type="line" smooth="yes"/>
      <point x="383" y="323"/>
      <point x="366" y="322"/>
      <point x="356" y="331" type="curve" smooth="yes"/>
      <point x="346" y="340"/>
      <point x="345" y="357"/>
    </contour>
    <contour>
      <point x="58" y="41" type="curve" smooth="yes"/>
      <point x="126" y="116" type="line" smooth="yes"/>
      <point x="136" y="126"/>
      <point x="152" y="127"/>
      <point x="162" y="118" type="curve" smooth="yes"/>
      <point x="172" y="108"/>
      <point x="173" y="92"/>
      <point x="164" y="82" type="curve" smooth="yes"/>
      <point x="96" y="7" type="line" smooth="yes"/>
      <point x="86" y="-3"/>
      <point x="70" y="-4"/>
      <point x="60" y="5" type="curve" smooth="yes"/>
      <point x="50" y="15"/>
      <point x="49" y="31"/>
    </contour>
  </outline>
</glyph>
<glyph name="Lslash" format="1">
  <advance width="474"/>
  <unicode hex="0141"/>
  <outline>
    <contour>
      <point x="291" y="324" type="curve" smooth="yes"/>
      <point x="76" y="182" type="line" smooth="yes"/>
      <point x="65" y="175"/>
      <point x="49" y="178"/>
      <point x="41" y="189" type="curve" smooth="yes"/>
      <point x="34" y="200"/>
      <point x="37" y="216"/>
      <point x="48" y="224" type="curve" smooth="yes"/>
      <point x="263" y="366" type="line" smooth="yes"/>
      <point x="274" y="373"/>
      <point x="290" y="370"/>
      <point x="298" y="359" type="curve" smooth="yes"/>
      <point x="305" y="348"/>
      <point x="302" y="332"/>
    </contour>
    <component base="L" xOffset="15"/>
    <component base="L" xOffset="15"/>
  </outline>
</glyph>
<glyph name="OE" format="1">
  <advance width="811"/>
  <unicode hex="0152"/>
  <outline>
    <contour>
      <point x="455" y="483" type="curve" smooth="yes"/>
      <point x="322" y="483" type="line" smooth="yes"/>
      <point x="195" y="483"/>
      <point x="111" y="393"/>
      <point x="111" y="263" type="curve" smooth="yes"/>
      <point x="111" y="143"/>
      <point x="197" y="48"/>
      <point x="322" y="48" type="curve" smooth="yes"/>
      <point x="484" y="48" type="line" smooth="yes"/>
      <point x="498" y="48"/>
      <point x="509" y="37"/>
      <point x="509" y="23" type="curve" smooth="yes"/>
      <point x="509" y="10"/>
      <point x="498" y="-2"/>
      <point x="484" y="-2" type="curve" smooth="yes"/>
      <point x="322" y="-2" type="line" smooth="yes"/>
      <point x="169" y="-2"/>
      <point x="61" y="115"/>
      <point x="61" y="263" type="curve"/>
      <point x="61" y="423"/>
      <point x="167" y="533"/>
      <point x="322" y="533" type="curve" smooth="yes"/>
      <point x="455" y="533" type="line" smooth="yes"/>
      <point x="469" y="533"/>
      <point x="480" y="522"/>
      <point x="480" y="508" type="curve" smooth="yes"/>
      <point x="480" y="495"/>
      <point x="469" y="483"/>
    </contour>
    <component base="E" xOffset="324"/>
    <component base="E" xOffset="324"/>
  </outline>
</glyph>
<glyph name="knAA" format="1">
  <advance width="770"/>
  <unicode hex="0C86"/>
  <outline>
    <contour>
      <point x="131" y="356" type="curve" smooth="yes"/>
      <point x="158" y="321"/>
      <point x="190" y="299"/>
      <point x="226" y="299" type="curve" smooth="yes"/>
      <point x="263" y="299"/>
      <point x="293" y="322"/>
      <point x="293" y="359" type="curve" smooth="yes"/>
      <point x="293" y="396"/>
      <point x="267" y="425"/>
      <point x="224" y="425" type="curve" smooth="yes"/>
      <point x="160" y="425"/>
      <point x="118" y="334"/>
      <point x="118" y="249" type="curve" smooth="yes"/>
      <point x="118" y="136"/>
      <point x="213" y="46"/>
      <point x="385" y="46" type="curve" smooth="yes"/>
      <point x="518" y="46"/>
      <point x="588" y="100"/>
      <point x="588" y="156" type="curve" smooth="yes"/>
      <point x="588" y="187"/>
      <point x="570" y="214"/>
      <point x="548" y="236" type="curve" smooth="yes"/>
      <point x="518" y="268"/>
      <point x="498" y="297"/>
      <point x="498" y="344" type="curve" smooth="yes"/>
      <point x="498" y="408"/>
      <point x="542" y="456"/>
      <point x="606" y="456" type="curve" smooth="yes"/>
      <point x="675" y="456"/>
      <point x="720" y="406"/>
      <point x="720" y="341" type="curve" smooth="yes"/>
      <point x="720" y="272"/>
      <point x="659" y="192"/>
      <point x="484" y="192" type="curve" smooth="yes"/>
      <point x="370" y="192" type="line" smooth="yes"/>
      <point x="358" y="192"/>
      <point x="347" y="203"/>
      <point x="347" y="215" type="curve" smooth="yes"/>
      <point x="347" y="227"/>
      <point x="358" y="238"/>
      <point x="370" y="238" type="curve" smooth="yes"/>
      <point x="484" y="238" type="line" smooth="yes"/>
      <point x="605" y="238"/>
      <point x="674" y="286"/>
      <point x="674" y="341" type="curve" smooth="yes"/>
      <point x="674" y="380"/>
      <point x="647" y="410"/>
      <point x="606" y="410" type="curve" smooth="yes"/>
      <point x="568" y="410"/>
      <point x="544" y="380"/>
      <point x="544" y="344" type="curve" smooth="yes"/>
      <point x="544" y="311"/>
      <point x="560" y="290"/>
      <point x="582" y="268" type="curve" smooth="yes"/>
      <point x="612" y="236"/>
      <point x="634" y="199"/>
      <point x="634" y="156" type="curve" smooth="yes"/>
      <point x="634" y="88"/>
      <point x="574" y="0"/>
      <point x="385" y="0" type="curve" smooth="yes"/>
      <point x="173" y="0"/>
      <point x="72" y="116"/>
      <point x="72" y="249" type="curve" smooth="yes"/>
      <point x="72" y="370"/>
      <point x="144" y="471"/>
      <point x="224" y="471" type="curve" smooth="yes"/>
      <point x="297" y="471"/>
      <point x="339" y="420"/>
      <point x="339" y="359" type="curve" smooth="yes"/>
      <point x="339" y="296"/>
      <point x="291" y="253"/>
      <point x="226" y="253" type="curve" smooth="yes"/>
      <point x="178" y="253"/>
      <point x="132" y="279"/>
      <point x="95" y="328" type="curve" smooth="yes"/>
      <point x="87" y="338"/>
      <point x="89" y="353"/>
      <point x="99" y="360" type="curve" smooth="yes"/>
      <point x="109" y="368"/>
      <point x="124" y="366"/>
    </contour>
  </outline>
</glyph>
<glyph name="knNYA" format="1">
  <advance width="922"/>
  <unicode hex="0C9E"/>
  <outline>
    <contour>
      <point x="606" y="354" type="curve" smooth="yes"/>
      <point x="641" y="412"/>
      <point x="689" y="456"/>
      <point x="752" y="456" type="curve" smooth="yes"/>
      <point x="835" y="456"/>
      <point x="865" y="394"/>
      <point x="865" y="346" type="curve" smooth="yes"/>
      <point x="865" y="310"/>
      <point x="852" y="275"/>
      <point x="836" y="241" type="curve" smooth="yes"/>
      <point x="830" y="230"/>
      <point x="816" y="225"/>
      <point x="805" y="230" type="curve" smooth="yes"/>
      <point x="794" y="236"/>
      <point x="789" y="250"/>
      <point x="794" y="261" type="curve" smooth="yes"/>
      <point x="808" y="289"/>
      <point x="819" y="316"/>
      <point x="819" y="346" type="curve" smooth="yes"/>
      <point x="819" y="374"/>
      <point x="801" y="410"/>
      <point x="752" y="410" type="curve" smooth="yes"/>
      <point x="705" y="410"/>
      <point x="671" y="372"/>
      <point x="646" y="330" type="curve" smooth="yes"/>
      <point x="639" y="320"/>
      <point x="625" y="316"/>
      <point x="614" y="322" type="curve" smooth="yes"/>
      <point x="604" y="329"/>
      <point x="600" y="343"/>
    </contour>
    <component base="knI"/>
    <component base="knI"/>
  </outline>
</glyph>
<glyph name="knLengthmark" format="1">
  <advance width="355"/>
  <unicode hex="0CD5"/>
  <outline>
    <contour>
      <point x="106" y="338" type="curve" smooth="yes"/>
      <point x="132" y="315"/>
      <point x="165" y="299"/>
      <point x="198" y="299" type="curve" smooth="yes"/>
      <point x="238" y="299"/>
      <point x="264" y="325"/>
      <point x="264" y="362" type="curve" smooth="yes"/>
      <point x="264" y="396"/>
      <point x="238" y="425"/>
      <point x="198" y="425" type="curve" smooth="yes"/>
      <point x="134" y="425"/>
      <point x="101" y="350"/>
      <point x="101" y="256" type="curve" smooth="yes"/>
      <point x="101" y="155"/>
      <point x="164" y="75"/>
      <point x="265" y="45" type="curve" smooth="yes"/>
      <point x="276" y="42"/>
      <point x="284" y="28"/>
      <point x="280" y="16" type="curve" smooth="yes"/>
      <point x="277" y="5"/>
      <point x="263" y="-3"/>
      <point x="251" y="1" type="curve" smooth="yes"/>
      <point x="130" y="37"/>
      <point x="55" y="135"/>
      <point x="55" y="256" type="curve"/>
      <point x="55" y="394"/>
      <point x="116" y="471"/>
      <point x="198" y="471" type="curve" smooth="yes"/>
      <point x="268" y="471"/>
      <point x="310" y="420"/>
      <point x="310" y="362" type="curve" smooth="yes"/>
      <point x="310" y="299"/>
      <point x="266" y="253"/>
      <point x="198" y="253" type="curve" smooth="yes"/>
      <point x="155" y="253"/>
      <point x="110" y="273"/>
      <point x="76" y="304" type="curve" smooth="yes"/>
      <point x="66" y="312"/>
      <point x="66" y="327"/>
      <point x="74" y="336" type="curve" smooth="yes"/>
      <point x="82" y="346"/>
      <point x="97" y="346"/>
    </contour>
  </outline>
</glyph>
<glyph name="knsignvL" format="1">
  <advance width="0"/>
  <unicode hex="0CE2"/>
  <outline>
    <contour>
      <point x="-261" y="-233" type="curve" smooth="yes"/>
      <point x="-275" y="-215"/>
      <point x="-282" y="-200"/>
      <point x="-282" y="-178" type="curve" smooth="yes"/>
      <point x="-282" y="-139"/>
      <point x="-254" y="-100"/>
      <point x="-192" y="-100" type="curve" smooth="yes"/>
      <point x="-138" y="-100"/>
      <point x="-100" y="-127"/>
      <point x="-70" y="-170" type="curve"/>
      <point x="-87" y="-161" type="line"/>
      <point x="-83" y="-161" type="line"/>
      <point x="-100" y="-170" type="line"/>
      <point x="-69" y="-127"/>
      <point x="-29" y="-100"/>
      <point x="22" y="-100" type="curve" smooth="yes"/>
      <point x="83" y="-100"/>
      <point x="115" y="-137"/>
      <point x="115" y="-177" type="curve" smooth="yes"/>
      <point x="115" y="-200"/>
      <point x="102" y="-222"/>
      <point x="83" y="-238" type="curve"/>
      <point x="84" y="-237" type="line"/>
      <point x="75" y="-246"/>
      <point x="52" y="-259"/>
      <point x="21" y="-275" type="curve" smooth="yes"/>
      <point x="0" y="-286"/>
      <point x="-13" y="-292"/>
      <point x="-13" y="-306" type="curve"/>
      <point x="-13" y="-310"/>
      <point x="-11" y="-315"/>
      <point x="-7" y="-317" type="curve" smooth="yes"/>
      <point x="-7" y="-318"/>
      <point x="-6" y="-318"/>
      <point x="-6" y="-319" type="curve" smooth="yes"/>
      <point x="5" y="-329"/>
      <point x="28" y="-335"/>
      <point x="75" y="-335" type="curve" smooth="yes"/>
      <point x="117" y="-335"/>
      <point x="147" y="-325"/>
      <point x="164" y="-310" type="curve" smooth="yes"/>
      <point x="182" y="-296"/>
      <point x="190" y="-271"/>
      <point x="190" y="-250" type="curve" smooth="yes"/>
      <point x="190" y="-209"/>
      <point x="179" y="-167"/>
      <point x="163" y="-129" type="curve" smooth="yes"/>
      <point x="158" y="-119"/>
      <point x="163" y="-106"/>
      <point x="174" y="-102" type="curve" smooth="yes"/>
      <point x="184" y="-97"/>
      <point x="197" y="-102"/>
      <point x="201" y="-113" type="curve" smooth="yes"/>
      <point x="219" y="-157"/>
      <point x="232" y="-203"/>
      <point x="232" y="-250" type="curve" smooth="yes"/>
      <point x="232" y="-283"/>
      <point x="218" y="-320"/>
      <point x="192" y="-342" type="curve" smooth="yes"/>
      <point x="169" y="-361"/>
      <point x="131" y="-377"/>
      <point x="75" y="-377" type="curve" smooth="yes"/>
      <point x="10" y="-377"/>
      <point x="-19" y="-363"/>
      <point x="-34" y="-349" type="curve"/>
      <point x="-33" y="-351" type="line"/>
      <point x="-47" y="-339"/>
      <point x="-55" y="-322"/>
      <point x="-55" y="-306" type="curve"/>
      <point x="-55" y="-280"/>
      <point x="-46" y="-262"/>
      <point x="3" y="-237" type="curve" smooth="yes"/>
      <point x="28" y="-225"/>
      <point x="47" y="-214"/>
      <point x="54" y="-207" type="curve" smooth="yes"/>
      <point x="54" y="-207"/>
      <point x="55" y="-206"/>
      <point x="55" y="-206" type="curve" smooth="yes"/>
      <point x="64" y="-198"/>
      <point x="73" y="-188"/>
      <point x="73" y="-177" type="curve" smooth="yes"/>
      <point x="73" y="-155"/>
      <point x="50" y="-142"/>
      <point x="22" y="-142" type="curve" smooth="yes"/>
      <point x="-15" y="-142"/>
      <point x="-43" y="-163"/>
      <point x="-66" y="-194" type="curve" smooth="yes"/>
      <point x="-70" y="-199"/>
      <point x="-77" y="-203"/>
      <point x="-83" y="-203" type="curve" smooth="yes"/>
      <point x="-87" y="-203" type="line" smooth="yes"/>
      <point x="-93" y="-203"/>
      <point x="-101" y="-199"/>
      <point x="-104" y="-194" type="curve" smooth="yes"/>
      <point x="-126" y="-163"/>
      <point x="-152" y="-142"/>
      <point x="-192" y="-142" type="curve" smooth="yes"/>
      <point x="-220" y="-142"/>
      <point x="-240" y="-157"/>
      <point x="-240" y="-178" type="curve" smooth="yes"/>
      <point x="-240" y="-190"/>
      <point x="-235" y="-197"/>
      <point x="-227" y="-207" type="curve" smooth="yes"/>
      <point x="-220" y="-216"/>
      <point x="-222" y="-230"/>
      <point x="-231" y="-237" type="curve" smooth="yes"/>
      <point x="-240" y="-244"/>
      <point x="-254" y="-242"/>
    </contour>
  </outline>
</glyph>
<glyph name="knSix" format="1">
  <advance width="546"/>
  <unicode hex="0CEC"/>
  <outline>
    <contour>
      <point x="474" y="0" type="curve" smooth="yes"/>
      <point x="350" y="0" type="line" smooth="yes"/>
      <point x="164" y="0"/>
      <point x="67" y="99"/>
      <point x="67" y="221" type="curve" smooth="yes"/>
      <point x="67" y="350"/>
      <point x="171" y="429"/>
      <point x="281" y="429" type="curve" smooth="yes"/>
      <point x="368" y="429"/>
      <point x="414" y="375"/>
      <point x="414" y="312" type="curve" smooth="yes"/>
      <point x="414" y="255"/>
      <point x="363" y="206"/>
      <point x="304" y="206" type="curve" smooth="yes"/>
      <point x="234" y="206"/>
      <point x="172" y="253"/>
      <point x="172" y="344" type="curve" smooth="yes"/>
      <point x="172" y="429"/>
      <point x="190" y="484"/>
      <point x="225" y="546" type="curve" smooth="yes"/>
      <point x="231" y="557"/>
      <point x="245" y="561"/>
      <point x="256" y="555" type="curve" smooth="yes"/>
      <point x="267" y="549"/>
      <point x="271" y="535"/>
      <point x="265" y="524" type="curve" smooth="yes"/>
      <point x="234" y="468"/>
      <point x="218" y="419"/>
      <point x="218" y="344" type="curve" smooth="yes"/>
      <point x="218" y="285"/>
      <point x="258" y="252"/>
      <point x="304" y="252" type="curve" smooth="yes"/>
      <point x="337" y="252"/>
      <point x="368" y="279"/>
      <point x="368" y="312" type="curve" smooth="yes"/>
      <point x="368" y="353"/>
      <point x="334" y="383"/>
      <point x="281" y="383" type="curve" smooth="yes"/>
      <point x="195" y="383"/>
      <point x="113" y="322"/>
      <point x="113" y="221" type="curve" smooth="yes"/>
      <point x="113" y="119"/>
      <point x="202" y="46"/>
      <point x="350" y="46" type="curve" smooth="yes"/>
      <point x="474" y="46" type="line" smooth="yes"/>
      <point x="486" y="46"/>
      <point x="497" y="35"/>
      <point x="497" y="23" type="curve" smooth="yes"/>
      <point x="497" y="11"/>
      <point x="486" y="0"/>
    </contour>
  </outline>
</glyph>
<glyph name="fraction" format="1">
  <advance width="454"/>
  <unicode hex="2044"/>
  <outline>
    <contour>
      <point x="393" y="495" type="curve" smooth="yes"/>
      <point x="110" y="10" type="line" smooth="yes"/>
      <point x="103" y="-1"/>
      <point x="87" y="-5"/>
      <point x="75" y="1" type="curve" smooth="yes"/>
      <point x="64" y="8"/>
      <point x="60" y="24"/>
      <point x="66" y="36" type="curve" smooth="yes"/>
      <point x="349" y="521" type="line" smooth="yes"/>
      <point x="356" y="532"/>
      <point x="372" y="536"/>
      <point x="384" y="530" type="curve" smooth="yes"/>
      <point x="395" y="523"/>
      <point x="399" y="507"/>
    </contour>
  </outline>
</glyph>
<glyph name="indianrupee" format="1">
  <advance width="602"/>
  <unicode hex="20B9"/>
  <outline>
    <contour>
      <point x="152" y="235" type="curve" smooth="yes"/>
      <point x="269" y="235"/>
      <point x="337" y="289"/>
      <point x="337" y="361" type="curve" smooth="yes"/>
      <point x="337" y="438"/>
      <point x="257" y="485"/>
      <point x="152" y="485" type="curve" smooth="yes"/>
      <point x="116" y="485" type="line" smooth="yes"/>
      <point x="104" y="485"/>
      <point x="93" y="496"/>
      <point x="93" y="508" type="curve" smooth="yes"/>
      <point x="93" y="520"/>
      <point x="104" y="531"/>
      <point x="116" y="531" type="curve" smooth="yes"/>
      <point x="152" y="531" type="line" smooth="yes"/>
      <point x="297" y="531"/>
      <point x="383" y="458"/>
      <point x="383" y="361" type="curve" smooth="yes"/>
      <point x="383" y="271"/>
      <point x="311" y="189"/>
      <point x="152" y="189" type="curve" smooth="yes"/>
      <point x="140" y="189"/>
      <point x="129" y="200"/>
      <point x="129" y="212" type="curve" smooth="yes"/>
      <point x="129" y="224"/>
      <point x="140" y="235"/>
    </contour>
    <contour>
      <point x="165" y="225" type="curve" smooth="yes"/>
      <point x="409" y="41" type="line" smooth="yes"/>
      <point x="419" y="34"/>
      <point x="421" y="19"/>
      <point x="413" y="9" type="curve" smooth="yes"/>
      <point x="406" y="-1"/>
      <point x="391" y="-3"/>
      <point x="381" y="5" type="curve" smooth="yes"/>
      <point x="137" y="189" type="line" smooth="yes"/>
      <point x="127" y="196"/>
      <point x="125" y="211"/>
      <point x="133" y="221" type="curve" smooth="yes"/>
      <point x="140" y="231"/>
      <point x="155" y="233"/>
    </contour>
    <contour>
      <point x="116" y="384" type="curve" smooth="yes"/>
      <point x="477" y="384" type="line" smooth="yes"/>
      <point x="489" y="384"/>
      <point x="500" y="373"/>
      <point x="500" y="361" type="curve" smooth="yes"/>
      <point x="500" y="349"/>
      <point x="489" y="338"/>
      <point x="477" y="338" type="curve" smooth="yes"/>
      <point x="116" y="338" type="line" smooth="yes"/>
      <point x="104" y="338"/>
      <point x="93" y="349"/>
      <point x="93" y="361" type="curve" smooth="yes"/>
      <point x="93" y="373"/>
      <point x="104" y="384"/>
    </contour>
    <contour>
      <point x="163" y="531" type="curve" smooth="yes"/>
      <point x="477" y="531" type="line" smooth="yes"/>
      <point x="489" y="531"/>
      <point x="500" y="520"/>
      <point x="500" y="508" type="curve" smooth="yes"/>
      <point x="500" y="496"/>
      <point x="489" y="485"/>
      <point x="477" y="485" type="curve" smooth="yes"/>
      <point x="163" y="485" type="line" smooth="yes"/>
      <point x="151" y="485"/>
      <point x="140" y="496"/>
      <point x="140" y="508" type="curve" smooth="yes"/>
      <point x="140" y="520"/>
      <point x="151" y="531"/>
    </contour>
  </outline>
</glyph>
<glyph name="acutecmb.cap" format="1">
  <advance width="0"/>
  <outline>
    <contour>
      <point x="119" y="706" type="curve" smooth="yes"/>
      <point x="74" y="679"/>
      <point x="26" y="649"/>
      <point x="-2" y="628" type="curve" smooth="yes"/>
      <point x="-12" y="621"/>
      <point x="-26" y="623"/>
      <point x="-33" y="633" type="curve" smooth="yes"/>
      <point x="-40" y="643"/>
      <point x="-38" y="657"/>
      <point x="-28" y="664" type="curve" smooth="yes"/>
      <point x="2" y="685"/>
      <point x="50" y="717"/>
      <point x="97" y="744" type="curve" smooth="yes"/>
      <point x="107" y="750"/>
      <point x="121" y="746"/>
      <point x="127" y="736" type="curve" smooth="yes"/>
      <point x="133" y="726"/>
      <point x="129" y="712"/>
    </contour>
  </outline>
</glyph>
<glyph name="knBHAc2" format="1">
  <advance width="119"/>
  <outline>
    <contour>
      <point x="-47" y="-429" type="curve" smooth="yes"/>
      <point x="-47" y="-495" type="line" smooth="yes"/>
      <point x="-47" y="-506"/>
      <point x="-57" y="-516"/>
      <point x="-68" y="-516" type="curve" smooth="yes"/>
      <point x="-79" y="-516"/>
      <point x="-89" y="-506"/>
      <point x="-89" y="-495" type="curve" smooth="yes"/>
      <point x="-89" y="-429" type="line" smooth="yes"/>
      <point x="-89" y="-418"/>
      <point x="-79" y="-408"/>
      <point x="-68" y="-408" type="curve" smooth="yes"/>
      <point x="-57" y="-408"/>
      <point x="-47" y="-418"/>
    </contour>
    <contour>
      <point x="-269" y="-116" type="curve" smooth="yes"/>
      <point x="-247" y="-105"/>
      <point x="-226" y="-100"/>
      <point x="-198" y="-100" type="curve" smooth="yes"/>
      <point x="-151" y="-100"/>
      <point x="-115" y="-132"/>
      <point x="-115" y="-171" type="curve" smooth="yes"/>
      <point x="-115" y="-197"/>
      <point x="-134" y="-225"/>
      <point x="-181" y="-250" type="curve" smooth="yes"/>
      <point x="-203" y="-261"/>
      <point x="-220" y="-278"/>
      <point x="-220" y="-298" type="curve" smooth="yes"/>
      <point x="-220" y="-321"/>
      <point x="-202" y="-335"/>
      <point x="-174" y="-335" type="curve" smooth="yes"/>
      <point x="-140" y="-335"/>
      <point x="-115" y="-321"/>
      <point x="-81" y="-290" type="curve" smooth="yes"/>
      <point x="-78" y="-286"/>
      <point x="-72" y="-284"/>
      <point x="-67" y="-284" type="curve" smooth="yes"/>
      <point x="-63" y="-284" type="line" smooth="yes"/>
      <point x="-58" y="-284"/>
      <point x="-52" y="-287"/>
      <point x="-48" y="-290" type="curve" smooth="yes"/>
      <point x="-18" y="-321"/>
      <point x="4" y="-335"/>
      <point x="35" y="-335" type="curve" smooth="yes"/>
      <point x="71" y="-335"/>
      <point x="96" y="-305"/>
      <point x="96" y="-251" type="curve" smooth="yes"/>
      <point x="96" y="-158"/>
      <point x="65" y="-53"/>
      <point x="35" y="37" type="curve" smooth="yes"/>
      <point x="31" y="48"/>
      <point x="38" y="60"/>
      <point x="48" y="64" type="curve" smooth="yes"/>
      <point x="59" y="68"/>
      <point x="71" y="61"/>
      <point x="75" y="51" type="curve" smooth="yes"/>
      <point x="107" y="-43"/>
      <point x="138" y="-154"/>
      <point x="138" y="-251" type="curve" smooth="yes"/>
      <point x="138" y="-341"/>
      <point x="89" y="-377"/>
      <point x="35" y="-377" type="curve" smooth="yes"/>
      <point x="-6" y="-377"/>
      <point x="-36" y="-361"/>
      <point x="-78" y="-320" type="curve"/>
      <point x="-63" y="-326" type="line"/>
      <point x="-67" y="-326" type="line"/>
      <point x="-53" y="-320" type="line"/>
      <point x="-97" y="-361"/>
      <point x="-130" y="-377"/>
      <point x="-174" y="-377" type="curve" smooth="yes"/>
      <point x="-234" y="-377"/>
      <point x="-262" y="-341"/>
      <point x="-262" y="-298" type="curve" smooth="yes"/>
      <point x="-262" y="-264"/>
      <point x="-239" y="-233"/>
      <point x="-201" y="-212" type="curve" smooth="yes"/>
      <point x="-176" y="-199"/>
      <point x="-157" y="-187"/>
      <point x="-157" y="-171" type="curve" smooth="yes"/>
      <point x="-157" y="-152"/>
      <point x="-179" y="-142"/>
      <point x="-198" y="-142" type="curve" smooth="yes"/>
      <point x="-218" y="-142"/>
      <point x="-233" y="-145"/>
      <point x="-249" y="-154" type="curve" smooth="yes"/>
      <point x="-259" y="-159"/>
      <point x="-272" y="-155"/>
      <point x="-278" y="-145" type="curve" smooth="yes"/>
      <point x="-283" y="-135"/>
      <point x="-279" y="-122"/>
    </contour>
  </outline>
</glyph>
<glyph name="knKU" format="1">
  <advance width="953"/>
  <outline>
    <contour>
      <point x="534" y="194" type="curve" smooth="yes"/>
      <point x="594" y="93"/>
      <point x="654" y="46"/>
      <point x="724" y="46" type="curve" smooth="yes"/>
      <point x="802" y="46"/>
      <point x="840" y="97"/>
      <point x="840" y="169" type="curve" smooth="yes"/>
      <point x="840" y="245"/>
      <point x="796" y="335"/>
      <point x="740" y="397" type="curve" smooth="yes"/>
      <point x="732" y="406"/>
      <point x="732" y="421"/>
      <point x="742" y="429" type="curve" smooth="yes"/>
      <point x="751" y="437"/>
      <point x="766" y="437"/>
      <point x="774" y="427" type="curve" smooth="yes"/>
      <point x="838" y="357"/>
      <point x="886" y="255"/>
      <point x="886" y="169" type="curve" smooth="yes"/>
      <point x="886" y="69"/>
      <point x="830" y="0"/>
      <point x="724" y="0" type="curve" smooth="yes"/>
      <point x="642" y="0"/>
      <point x="568" y="49"/>
      <point x="494" y="170" type="curve" smooth="yes"/>
      <point x="488" y="181"/>
      <point x="491" y="195"/>
      <point x="502" y="202" type="curve" smooth="yes"/>
      <point x="513" y="208"/>
      <point x="527" y="205"/>
    </contour>
    <component base="knKA"/>
    <component base="knKA"/>
  </outline>
</glyph>
<glyph name="knLLAc2" format="1">
  <advance width="119"/>
  <outline>
    <contour>
      <point x="-203" y="-197" type="curve" smooth="yes"/>
      <point x="-187" y="-206"/>
      <point x="-166" y="-213"/>
      <point x="-144" y="-213" type="curve" smooth="yes"/>
      <point x="-122" y="-213"/>
      <point x="-99" y="-205"/>
      <point x="-99" y="-179" type="curve" smooth="yes"/>
      <point x="-99" y="-161"/>
      <point x="-114" y="-146"/>
      <point x="-140" y="-146" type="curve" smooth="yes"/>
      <point x="-175" y="-146"/>
      <point x="-197" y="-179"/>
      <point x="-197" y="-215" type="curve" smooth="yes"/>
      <point x="-197" y="-239"/>
      <point x="-188" y="-261"/>
      <point x="-170" y="-279" type="curve" smooth="yes"/>
      <point x="-151" y="-299"/>
      <point x="-117" y="-315"/>
      <point x="-52" y="-315" type="curve" smooth="yes"/>
      <point x="0" y="-315"/>
      <point x="39" y="-296"/>
      <point x="58" y="-276" type="curve" smooth="yes"/>
      <point x="81" y="-254"/>
      <point x="93" y="-225"/>
      <point x="93" y="-182" type="curve" smooth="yes"/>
      <point x="93" y="-132"/>
      <point x="73" y="-56"/>
      <point x="36" y="36" type="curve" smooth="yes"/>
      <point x="31" y="47"/>
      <point x="37" y="59"/>
      <point x="47" y="63" type="curve" smooth="yes"/>
      <point x="58" y="68"/>
      <point x="70" y="62"/>
      <point x="74" y="52" type="curve" smooth="yes"/>
      <point x="115" y="-46"/>
      <point x="135" y="-128"/>
      <point x="135" y="-182" type="curve" smooth="yes"/>
      <point x="135" y="-239"/>
      <point x="117" y="-276"/>
      <point x="88" y="-306" type="curve" smooth="yes"/>
      <point x="63" y="-330"/>
      <point x="14" y="-357"/>
      <point x="-52" y="-357" type="curve" smooth="yes"/>
      <point x="-135" y="-357"/>
      <point x="-175" y="-333"/>
      <point x="-200" y="-309" type="curve" smooth="yes"/>
      <point x="-226" y="-283"/>
      <point x="-239" y="-251"/>
      <point x="-239" y="-215" type="curve" smooth="yes"/>
      <point x="-239" y="-153"/>
      <point x="-197" y="-104"/>
      <point x="-140" y="-104" type="curve" smooth="yes"/>
      <point x="-80" y="-104"/>
      <point x="-57" y="-143"/>
      <point x="-57" y="-179" type="curve" smooth="yes"/>
      <point x="-57" y="-229"/>
      <point x="-94" y="-255"/>
      <point x="-144" y="-255" type="curve" smooth="yes"/>
      <point x="-174" y="-255"/>
      <point x="-201" y="-246"/>
      <point x="-223" y="-235" type="curve" smooth="yes"/>
      <point x="-233" y="-229"/>
      <point x="-237" y="-216"/>
      <point x="-232" y="-206" type="curve" smooth="yes"/>
      <point x="-226" y="-196"/>
      <point x="-213" y="-192"/>
    </contour>
    <contour>
      <point x="-85" y="-349" type="curve" smooth="yes"/>
      <point x="-92" y="-355"/>
      <point x="-99" y="-365"/>
      <point x="-99" y="-377" type="curve" smooth="yes"/>
      <point x="-99" y="-397"/>
      <point x="-77" y="-407"/>
      <point x="-49" y="-407" type="curve" smooth="yes"/>
      <point x="-20" y="-407"/>
      <point x="6" y="-397"/>
      <point x="6" y="-376" type="curve" smooth="yes"/>
      <point x="6" y="-361"/>
      <point x="-3" y="-353"/>
      <point x="-10" y="-344" type="curve" smooth="yes"/>
      <point x="-17" y="-336"/>
      <point x="-16" y="-322"/>
      <point x="-7" y="-315" type="curve" smooth="yes"/>
      <point x="1" y="-308"/>
      <point x="15" y="-309"/>
      <point x="22" y="-318" type="curve" smooth="yes"/>
      <point x="35" y="-333"/>
      <point x="48" y="-349"/>
      <point x="48" y="-376" type="curve" smooth="yes"/>
      <point x="48" y="-413"/>
      <point x="20" y="-449"/>
      <point x="-49" y="-449" type="curve" smooth="yes"/>
      <point x="-117" y="-449"/>
      <point x="-141" y="-413"/>
      <point x="-141" y="-377" type="curve" smooth="yes"/>
      <point x="-141" y="-353"/>
      <point x="-128" y="-331"/>
      <point x="-111" y="-317" type="curve" smooth="yes"/>
      <point x="-103" y="-310"/>
      <point x="-89" y="-311"/>
      <point x="-82" y="-320" type="curve" smooth="yes"/>
      <point x="-75" y="-328"/>
      <point x="-76" y="-342"/>
    </contour>
  </outline>
</glyph>
<glyph name="knNGA.base" format="1">
  <advance width="704"/>
  <outline>
    <contour>
      <point x="599" y="456" type="curve" smooth="yes"/>
      <point x="690" y="456" type="line" smooth="yes"/>
      <point x="702" y="456"/>
      <point x="713" y="445"/>
      <point x="713" y="433" type="curve" smooth="yes"/>
      <point x="713" y="421"/>
      <point x="702" y="410"/>
      <point x="690" y="410" type="curve" smooth="yes"/>
      <point x="599" y="410" type="line" smooth="yes"/>
      <point x="587" y="410"/>
      <point x="576" y="421"/>
      <point x="576" y="433" type="curve" smooth="yes"/>
      <point x="576" y="445"/>
      <point x="587" y="456"/>
    </contour>
    <component base="knNGA"/>
    <component base="knNGA"/>
  </outline>
</glyph>
<glyph name="knRI" format="1">
  <advance width="621"/>
  <outline>
    <contour>
      <point x="82" y="223" type="curve" smooth="yes"/>
      <point x="82" y="346"/>
      <point x="185" y="452"/>
      <point x="321" y="452" type="curve" smooth="yes"/>
      <point x="460" y="452"/>
      <point x="554" y="344"/>
      <point x="554" y="223" type="curve" smooth="yes"/>
      <point x="554" y="96"/>
      <point x="465" y="-4"/>
      <point x="319" y="-4" type="curve" smooth="yes"/>
      <point x="175" y="-4"/>
      <point x="82" y="93"/>
    </contour>
    <contour>
      <point x="128" y="223" type="curve" smooth="yes"/>
      <point x="128" y="119"/>
      <point x="205" y="42"/>
      <point x="319" y="42" type="curve" smooth="yes"/>
      <point x="435" y="42"/>
      <point x="508" y="120"/>
      <point x="508" y="223" type="curve" smooth="yes"/>
      <point x="508" y="320"/>
      <point x="432" y="406"/>
      <point x="321" y="406" type="curve" smooth="yes"/>
      <point x="213" y="406"/>
      <point x="128" y="322"/>
    </contour>
    <contour>
      <point x="503" y="277" type="curve" smooth="yes"/>
      <point x="502" y="367"/>
      <point x="479" y="443"/>
      <point x="439" y="481" type="curve" smooth="yes"/>
      <point x="404" y="516"/>
      <point x="349" y="543"/>
      <point x="280" y="543" type="curve" smooth="yes"/>
      <point x="183" y="543"/>
      <point x="130" y="499"/>
      <point x="130" y="452" type="curve" smooth="yes"/>
      <point x="130" y="428"/>
      <point x="141" y="404"/>
      <point x="171" y="380" type="curve" smooth="yes"/>
      <point x="181" y="372"/>
      <point x="183" y="357"/>
      <point x="175" y="348" type="curve" smooth="yes"/>
      <point x="167" y="338"/>
      <point x="152" y="336"/>
      <point x="143" y="344" type="curve" smooth="yes"/>
      <point x="97" y="380"/>
      <point x="84" y="416"/>
      <point x="84" y="452" type="curve" smooth="yes"/>
      <point x="84" y="513"/>
      <point x="135" y="589"/>
      <point x="280" y="589" type="curve" smooth="yes"/>
      <point x="363" y="589"/>
      <point x="430" y="556"/>
      <point x="471" y="515" type="curve" smooth="yes"/>
      <point x="517" y="471"/>
      <point x="548" y="383"/>
      <point x="549" y="277" type="curve" smooth="yes"/>
      <point x="549" y="265"/>
      <point x="539" y="254"/>
      <point x="526" y="254" type="curve" smooth="yes"/>
      <point x="514" y="254"/>
      <point x="503" y="264"/>
    </contour>
  </outline>
</glyph>
<glyph name="knReph" format="1">
  <advance width="496"/>
  <outline>
    <contour>
      <point x="239" y="216" type="curve" smooth="yes"/>
      <point x="208" y="211"/>
      <point x="188" y="198"/>
      <point x="173" y="184" type="curve" smooth="yes"/>
      <point x="160" y="171"/>
      <point x="154" y="149"/>
      <point x="154" y="132" type="curve" smooth="yes"/>
      <point x="154" y="101"/>
      <point x="172" y="73"/>
      <point x="202" y="51" type="curve" smooth="yes"/>
      <point x="212" y="44"/>
      <point x="214" y="29"/>
      <point x="206" y="19" type="curve" smooth="yes"/>
      <point x="199" y="9"/>
      <point x="184" y="7"/>
      <point x="174" y="15" type="curve" smooth="yes"/>
      <point x="132" y="47"/>
      <point x="108" y="89"/>
      <point x="108" y="132" type="curve" smooth="yes"/>
      <point x="108" y="161"/>
      <point x="120" y="195"/>
      <point x="141" y="216" type="curve" smooth="yes"/>
      <point x="160" y="236"/>
      <point x="188" y="255"/>
      <point x="231" y="262" type="curve" smooth="yes"/>
      <point x="244" y="264"/>
      <point x="256" y="255"/>
      <point x="258" y="243" type="curve" smooth="yes"/>
      <point x="260" y="230"/>
      <point x="251" y="218"/>
    </contour>
    <contour>
      <point x="307" y="216" type="curve" smooth="yes"/>
      <point x="245" y="216" type="line" smooth="yes"/>
      <point x="129" y="216"/>
      <point x="77" y="275"/>
      <point x="77" y="338" type="curve" smooth="yes"/>
      <point x="77" y="395"/>
      <point x="113" y="456"/>
      <point x="225" y="456" type="curve" smooth="yes"/>
      <point x="423" y="456" type="line" smooth="yes"/>
      <point x="435" y="456"/>
      <point x="446" y="445"/>
      <point x="446" y="433" type="curve" smooth="yes"/>
      <point x="446" y="421"/>
      <point x="435" y="410"/>
      <point x="423" y="410" type="curve" smooth="yes"/>
      <point x="225" y="410" type="line" smooth="yes"/>
      <point x="157" y="410"/>
      <point x="123" y="377"/>
      <point x="123" y="338" type="curve" smooth="yes"/>
      <point x="123" y="293"/>
      <point x="173" y="262"/>
      <point x="245" y="262" type="curve" smooth="yes"/>
      <point x="307" y="262" type="line" smooth="yes"/>
      <point x="319" y="262"/>
      <point x="330" y="251"/>
      <point x="330" y="239" type="curve" smooth="yes"/>
      <point x="330" y="227"/>
      <point x="319" y="216"/>
    </contour>
  </outline>
</glyph>
<glyph name="knTAc2.following" format="1">
  <advance width="397"/>
  <outline>
    <contour>
      <point x="233" y="-521" type="curve" smooth="yes"/>
      <point x="228" y="-505"/>
      <point x="220" y="-482"/>
      <point x="220" y="-454" type="curve" smooth="yes"/>
      <point x="220" y="-386"/>
      <point x="262" y="-337"/>
      <point x="328" y="-337" type="curve" smooth="yes"/>
      <point x="395" y="-337"/>
      <point x="432" y="-378"/>
      <point x="432" y="-431" type="curve" smooth="yes"/>
      <point x="432" y="-489"/>
      <point x="405" y="-542"/>
      <point x="282" y="-542" type="curve" smooth="yes"/>
      <point x="-10" y="-542" type="line" smooth="yes"/>
      <point x="-21" y="-542"/>
      <point x="-31" y="-532"/>
      <point x="-31" y="-521" type="curve" smooth="yes"/>
      <point x="-31" y="-510"/>
      <point x="-21" y="-500"/>
      <point x="-10" y="-500" type="curve" smooth="yes"/>
      <point x="282" y="-500" type="line" smooth="yes"/>
      <point x="359" y="-500"/>
      <point x="390" y="-473"/>
      <point x="390" y="-431" type="curve" smooth="yes"/>
      <point x="390" y="-400"/>
      <point x="365" y="-379"/>
      <point x="328" y="-379" type="curve" smooth="yes"/>
      <point x="286" y="-379"/>
      <point x="262" y="-412"/>
      <point x="262" y="-454" type="curve" smooth="yes"/>
      <point x="262" y="-478"/>
      <point x="270" y="-497"/>
      <point x="273" y="-511" type="curve" smooth="yes"/>
      <point x="276" y="-522"/>
      <point x="269" y="-533"/>
      <point x="258" y="-536" type="curve" smooth="yes"/>
      <point x="247" y="-539"/>
      <point x="236" y="-532"/>
    </contour>
  </outline>
</glyph>
